<svg width="430" height="149" viewBox="0 0 430 149" fill="none" xmlns="http://www.w3.org/2000/svg">
<rect width="10.079" height="71.2005" transform="matrix(0.760567 0.64926 -0.511975 0.859001 36.4529 15.2137)" fill="#FFB000"/>
<rect width="10.079" height="71.2005" transform="matrix(0.760567 0.64926 -0.511975 0.859001 50.4347 10.0168)" fill="#CC8D00"/>
<path d="M23.5383 72L24.4383 23.4H31.0983L39.6783 62.82L48.3183 23.4H54.9183L55.8183 72H50.3583L49.8183 36.72L41.5983 72H37.7583L29.5983 36.72L29.0583 72H23.5383ZM68.9677 72.48C67.6077 72.48 66.4077 72.1 65.3677 71.34C64.3277 70.54 63.5077 69.54 62.9077 68.34C62.3077 67.1 62.0077 65.8 62.0077 64.44C62.0077 62.28 62.3677 60.46 63.0877 58.98C63.8077 57.5 64.7877 56.26 66.0277 55.26C67.3077 54.22 68.7677 53.32 70.4077 52.56C72.0877 51.8 73.8477 51.06 75.6877 50.34V47.88C75.6877 46.48 75.6077 45.32 75.4477 44.4C75.2877 43.48 74.9477 42.8 74.4277 42.36C73.9477 41.88 73.2077 41.64 72.2077 41.64C71.3277 41.64 70.6077 41.84 70.0477 42.24C69.5277 42.64 69.1477 43.22 68.9077 43.98C68.6677 44.7 68.5477 45.56 68.5477 46.56V48.3L62.1877 48.06C62.2677 44.22 63.1477 41.4 64.8277 39.6C66.5077 37.76 69.1077 36.84 72.6277 36.84C76.0677 36.84 78.5077 37.78 79.9477 39.66C81.3877 41.54 82.1077 44.26 82.1077 47.82V63.66C82.1077 64.74 82.1277 65.78 82.1677 66.78C82.2477 67.78 82.3277 68.72 82.4077 69.6C82.5277 70.44 82.6277 71.24 82.7077 72H76.8277C76.7077 71.36 76.5477 70.56 76.3477 69.6C76.1877 68.6 76.0677 67.7 75.9877 66.9C75.5877 68.26 74.8077 69.54 73.6477 70.74C72.5277 71.9 70.9677 72.48 68.9677 72.48ZM71.4877 66.96C72.1277 66.96 72.7277 66.78 73.2877 66.42C73.8477 66.06 74.3477 65.66 74.7877 65.22C75.2277 64.74 75.5277 64.36 75.6877 64.08V54.24C74.6877 54.8 73.7477 55.36 72.8677 55.92C71.9877 56.48 71.2077 57.08 70.5277 57.72C69.8877 58.32 69.3677 59.02 68.9677 59.82C68.6077 60.58 68.4277 61.46 68.4277 62.46C68.4277 63.86 68.6877 64.96 69.2077 65.76C69.7277 66.56 70.4877 66.96 71.4877 66.96ZM97.2746 82.74C95.1946 82.74 93.3146 82.52 91.6346 82.08C89.9546 81.64 88.6346 80.94 87.6746 79.98C86.7146 79.02 86.2346 77.76 86.2346 76.2C86.2346 75.08 86.4746 74.1 86.9546 73.26C87.4346 72.42 88.0546 71.7 88.8146 71.1C89.5746 70.46 90.3746 69.94 91.2146 69.54C90.0946 69.22 89.2546 68.72 88.6946 68.04C88.1346 67.32 87.8546 66.58 87.8546 65.82C87.8546 64.54 88.1946 63.44 88.8746 62.52C89.5546 61.6 90.4946 60.6 91.6946 59.52C90.3746 58.52 89.3746 57.24 88.6946 55.68C88.0146 54.12 87.6746 51.96 87.6746 49.2C87.6746 46.48 88.0346 44.22 88.7546 42.42C89.5146 40.58 90.6146 39.2 92.0546 38.28C93.5346 37.32 95.3346 36.84 97.4546 36.84C99.3346 36.84 100.835 37.16 101.955 37.8C103.115 38.44 103.995 39.4 104.595 40.68C104.795 40.36 105.335 39.82 106.215 39.06C107.095 38.26 108.115 37.6 109.275 37.08L110.235 36.66L111.855 40.8C111.335 40.88 110.635 41.08 109.755 41.4C108.915 41.68 108.115 41.98 107.355 42.3C106.635 42.58 106.175 42.82 105.975 43.02C106.255 43.7 106.495 44.68 106.695 45.96C106.935 47.24 107.055 48.38 107.055 49.38C107.055 51.74 106.755 53.82 106.155 55.62C105.555 57.42 104.555 58.84 103.155 59.88C101.795 60.88 99.8946 61.38 97.4546 61.38C96.9346 61.38 96.3746 61.34 95.7746 61.26C95.1746 61.18 94.6346 61.08 94.1546 60.96C93.9146 61.32 93.6546 61.74 93.3746 62.22C93.1346 62.7 93.0146 63.16 93.0146 63.6C93.0146 64.04 93.2346 64.4 93.6746 64.68C94.1546 64.92 94.8946 65.08 95.8946 65.16L101.295 65.64C104.015 65.88 106.035 66.7 107.355 68.1C108.675 69.5 109.335 71.5 109.335 74.1C109.335 75.98 108.895 77.56 108.015 78.84C107.135 80.16 105.795 81.14 103.995 81.78C102.235 82.42 99.9946 82.74 97.2746 82.74ZM97.7546 77.7C100.035 77.7 101.715 77.42 102.795 76.86C103.875 76.34 104.415 75.48 104.415 74.28C104.415 73.56 104.275 72.96 103.995 72.48C103.755 72 103.295 71.62 102.615 71.34C101.935 71.06 100.955 70.86 99.6746 70.74L94.2146 70.26C93.7746 70.7 93.3546 71.14 92.9546 71.58C92.5546 72.02 92.2346 72.48 91.9946 72.96C91.7546 73.48 91.6346 74.02 91.6346 74.58C91.6346 75.62 92.0746 76.4 92.9546 76.92C93.8346 77.44 95.4346 77.7 97.7546 77.7ZM97.4546 56.88C98.3746 56.88 99.0946 56.72 99.6146 56.4C100.175 56.04 100.595 55.54 100.875 54.9C101.155 54.22 101.335 53.4 101.415 52.44C101.535 51.48 101.595 50.4 101.595 49.2C101.595 48 101.535 46.92 101.415 45.96C101.335 44.96 101.155 44.12 100.875 43.44C100.635 42.72 100.235 42.18 99.6746 41.82C99.1546 41.46 98.4346 41.28 97.5146 41.28C96.6346 41.28 95.8946 41.46 95.2946 41.82C94.7346 42.18 94.3146 42.7 94.0346 43.38C93.7546 44.02 93.5546 44.84 93.4346 45.84C93.3146 46.8 93.2546 47.92 93.2546 49.2C93.2546 50.28 93.2946 51.3 93.3746 52.26C93.4946 53.18 93.6946 53.98 93.9746 54.66C94.2946 55.34 94.7346 55.88 95.2946 56.28C95.8546 56.68 96.5746 56.88 97.4546 56.88ZM114.529 72V37.32H120.949V42.24C122.229 40.12 123.509 38.7 124.789 37.98C126.069 37.26 127.349 36.9 128.629 36.9C128.789 36.9 128.929 36.9 129.049 36.9C129.209 36.9 129.409 36.92 129.649 36.96V44.04C129.169 43.84 128.609 43.68 127.969 43.56C127.369 43.4 126.749 43.32 126.109 43.32C125.109 43.32 124.189 43.56 123.349 44.04C122.549 44.48 121.749 45.36 120.949 46.68V72H114.529ZM143.226 72.48C140.506 72.48 138.406 71.96 136.926 70.92C135.446 69.84 134.406 68.28 133.806 66.24C133.246 64.16 132.966 61.62 132.966 58.62V50.7C132.966 47.62 133.266 45.06 133.866 43.02C134.466 40.98 135.506 39.44 136.986 38.4C138.506 37.36 140.586 36.84 143.226 36.84C146.146 36.84 148.286 37.44 149.646 38.64C151.046 39.84 151.966 41.58 152.406 43.86C152.846 46.1 153.066 48.8 153.066 51.96V54.78H139.386V61.74C139.386 63.14 139.506 64.28 139.746 65.16C140.026 66.04 140.446 66.7 141.006 67.14C141.606 67.54 142.366 67.74 143.286 67.74C144.246 67.74 144.966 67.52 145.446 67.08C145.966 66.6 146.306 65.94 146.466 65.1C146.666 64.22 146.766 63.2 146.766 62.04V59.94H153.006V61.26C153.006 64.74 152.266 67.48 150.786 69.48C149.306 71.48 146.786 72.48 143.226 72.48ZM139.386 51.3H146.766V48.18C146.766 46.74 146.686 45.54 146.526 44.58C146.366 43.58 146.026 42.84 145.506 42.36C145.026 41.84 144.246 41.58 143.166 41.58C142.126 41.58 141.326 41.82 140.766 42.3C140.246 42.78 139.886 43.6 139.686 44.76C139.486 45.88 139.386 47.44 139.386 49.44V51.3ZM159.48 72V23.4H165.9V72H159.48ZM178.831 72.48C177.471 72.48 176.271 72.1 175.231 71.34C174.191 70.54 173.371 69.54 172.771 68.34C172.171 67.1 171.871 65.8 171.871 64.44C171.871 62.28 172.231 60.46 172.951 58.98C173.671 57.5 174.651 56.26 175.891 55.26C177.171 54.22 178.631 53.32 180.271 52.56C181.951 51.8 183.711 51.06 185.551 50.34V47.88C185.551 46.48 185.471 45.32 185.311 44.4C185.151 43.48 184.811 42.8 184.291 42.36C183.811 41.88 183.071 41.64 182.071 41.64C181.191 41.64 180.471 41.84 179.911 42.24C179.391 42.64 179.011 43.22 178.771 43.98C178.531 44.7 178.411 45.56 178.411 46.56V48.3L172.051 48.06C172.131 44.22 173.011 41.4 174.691 39.6C176.371 37.76 178.971 36.84 182.491 36.84C185.931 36.84 188.371 37.78 189.811 39.66C191.251 41.54 191.971 44.26 191.971 47.82V63.66C191.971 64.74 191.991 65.78 192.031 66.78C192.111 67.78 192.191 68.72 192.271 69.6C192.391 70.44 192.491 71.24 192.571 72H186.691C186.571 71.36 186.411 70.56 186.211 69.6C186.051 68.6 185.931 67.7 185.851 66.9C185.451 68.26 184.671 69.54 183.511 70.74C182.391 71.9 180.831 72.48 178.831 72.48ZM181.351 66.96C181.991 66.96 182.591 66.78 183.151 66.42C183.711 66.06 184.211 65.66 184.651 65.22C185.091 64.74 185.391 64.36 185.551 64.08V54.24C184.551 54.8 183.611 55.36 182.731 55.92C181.851 56.48 181.071 57.08 180.391 57.72C179.751 58.32 179.231 59.02 178.831 59.82C178.471 60.58 178.291 61.46 178.291 62.46C178.291 63.86 178.551 64.96 179.071 65.76C179.591 66.56 180.351 66.96 181.351 66.96ZM206.178 72.48C203.338 72.48 201.058 71.6 199.338 69.84C197.618 68.04 196.638 65.68 196.398 62.76L201.738 61.14C202.058 63.34 202.598 65 203.358 66.12C204.118 67.2 205.238 67.74 206.718 67.74C207.878 67.74 208.758 67.42 209.358 66.78C209.958 66.1 210.258 65.2 210.258 64.08C210.258 63.08 210.038 62.18 209.598 61.38C209.158 60.58 208.438 59.76 207.438 58.92L201.498 53.82C200.298 52.78 199.278 51.62 198.438 50.34C197.638 49.06 197.238 47.4 197.238 45.36C197.238 43.52 197.598 41.98 198.318 40.74C199.078 39.46 200.118 38.5 201.438 37.86C202.798 37.18 204.378 36.84 206.178 36.84C208.938 36.84 211.038 37.74 212.478 39.54C213.958 41.3 214.798 43.44 214.998 45.96L210.678 47.58C210.518 46.38 210.278 45.34 209.958 44.46C209.638 43.54 209.198 42.84 208.638 42.36C208.078 41.84 207.338 41.58 206.418 41.58C205.378 41.58 204.538 41.94 203.898 42.66C203.298 43.34 202.998 44.16 202.998 45.12C202.998 45.72 203.118 46.32 203.358 46.92C203.638 47.48 204.098 48.04 204.738 48.6L210.858 54.24C211.698 55 212.478 55.82 213.198 56.7C213.958 57.58 214.578 58.58 215.058 59.7C215.538 60.82 215.778 62.12 215.778 63.6C215.778 65.56 215.378 67.2 214.578 68.52C213.778 69.84 212.658 70.84 211.218 71.52C209.778 72.16 208.098 72.48 206.178 72.48Z" fill="white"/>
<path d="M221.119 72V23.4H232.279C234.479 23.4 236.379 23.64 237.979 24.12C239.619 24.6 240.979 25.34 242.059 26.34C243.139 27.34 243.939 28.62 244.459 30.18C244.979 31.7 245.239 33.5 245.239 35.58C245.239 37.58 244.979 39.32 244.459 40.8C243.979 42.24 243.219 43.38 242.179 44.22C241.179 45.06 239.879 45.6 238.279 45.84C240.239 46.28 241.819 47.04 243.019 48.12C244.219 49.16 245.099 50.52 245.659 52.2C246.259 53.84 246.559 55.82 246.559 58.14C246.559 60.22 246.319 62.12 245.839 63.84C245.359 65.56 244.599 67.02 243.559 68.22C242.559 69.42 241.259 70.36 239.659 71.04C238.099 71.68 236.239 72 234.079 72H221.119ZM227.899 67.14H232.459C235.499 67.14 237.519 66.44 238.519 65.04C239.559 63.6 240.079 61.3 240.079 58.14C240.079 56.1 239.799 54.4 239.239 53.04C238.719 51.64 237.859 50.6 236.659 49.92C235.499 49.2 233.919 48.84 231.919 48.84H227.899V67.14ZM227.899 43.68H231.919C233.839 43.68 235.339 43.42 236.419 42.9C237.499 42.34 238.259 41.46 238.699 40.26C239.139 39.06 239.359 37.5 239.359 35.58C239.359 33.34 239.019 31.72 238.339 30.72C237.659 29.72 236.599 29.1 235.159 28.86C233.719 28.58 231.839 28.44 229.519 28.44H227.899V43.68ZM252.464 72V37.32H258.884V72H252.464ZM252.464 32.16V25.44H258.884V32.16H252.464ZM265.875 71.94V23.34H272.295V52.32L281.655 37.32H288.375L280.215 50.88L288.135 72H281.715L275.235 54.24L272.295 58.68V71.94H265.875ZM301.078 72.48C298.358 72.48 296.258 71.96 294.778 70.92C293.298 69.84 292.258 68.28 291.658 66.24C291.098 64.16 290.818 61.62 290.818 58.62V50.7C290.818 47.62 291.118 45.06 291.718 43.02C292.318 40.98 293.358 39.44 294.838 38.4C296.358 37.36 298.438 36.84 301.078 36.84C303.998 36.84 306.138 37.44 307.498 38.64C308.898 39.84 309.818 41.58 310.258 43.86C310.698 46.1 310.918 48.8 310.918 51.96V54.78H297.238V61.74C297.238 63.14 297.358 64.28 297.598 65.16C297.878 66.04 298.298 66.7 298.858 67.14C299.458 67.54 300.218 67.74 301.138 67.74C302.098 67.74 302.818 67.52 303.298 67.08C303.818 66.6 304.158 65.94 304.318 65.1C304.518 64.22 304.618 63.2 304.618 62.04V59.94H310.858V61.26C310.858 64.74 310.118 67.48 308.638 69.48C307.158 71.48 304.638 72.48 301.078 72.48ZM297.238 51.3H304.618V48.18C304.618 46.74 304.538 45.54 304.378 44.58C304.218 43.58 303.878 42.84 303.358 42.36C302.878 41.84 302.098 41.58 301.018 41.58C299.978 41.58 299.178 41.82 298.618 42.3C298.098 42.78 297.738 43.6 297.538 44.76C297.338 45.88 297.238 47.44 297.238 49.44V51.3Z" fill="#FFB000"/>
</svg>
